<svg width="29" height="29" viewBox="0 0 29 29" fill="none" xmlns="http://www.w3.org/2000/svg">
<path d="M28.2017 24.3592L18.3425 14.5L28.2017 4.64083C29.2661 3.5764 29.2661 1.86275 28.2017 0.798321C27.1373 -0.266107 25.4236 -0.266107 24.3592 0.798321L14.5 10.6575L4.64083 0.798321C3.5764 -0.266107 1.86275 -0.266107 0.798321 0.798321C-0.266107 1.86275 -0.266107 3.5764 0.798321 4.64083L10.6575 14.5L0.798321 24.3592C-0.266107 25.4236 -0.266107 27.1373 0.798321 28.2017C1.86275 29.2661 3.5764 29.2661 4.64083 28.2017L14.5 18.3425L24.3592 28.2017C25.4236 29.2661 27.1373 29.2661 28.2017 28.2017C29.2586 27.1373 29.2586 25.416 28.2017 24.3592Z" fill="#159A9C"/>
</svg>
