<svg width="106" height="103" viewBox="0 0 106 103" fill="none" xmlns="http://www.w3.org/2000/svg">
<path d="M6.26736 71.343C6.26736 64.8826 8.32775 59.6453 12.4485 55.6308C16.3034 51.8823 21.0756 50.008 26.7649 50.008C32.3479 50.008 37.0137 51.8823 40.7622 55.6308C44.7501 59.6187 46.744 64.8561 46.744 71.343C46.744 77.8033 44.7368 83.0141 40.7224 86.9753C36.9206 90.7505 32.2548 92.6381 26.725 92.6381C21.1154 92.6381 16.3566 90.7505 12.4485 86.9753C8.32775 83.0141 6.26736 77.8033 6.26736 71.343ZM14.5621 71.343C14.5621 78.1489 16.7421 82.7748 21.1022 85.2207C22.6441 86.0714 24.4918 86.4968 26.6453 86.4968C28.7987 86.4968 30.6198 86.0714 32.1086 85.2207C33.5974 84.3433 34.8203 83.2002 35.7774 81.7911C37.5587 79.0794 38.4493 75.5967 38.4493 71.343C38.4493 64.5902 36.3091 59.9643 32.0289 57.4652C30.5401 56.5879 28.7588 56.1493 26.6851 56.1493C24.6115 56.1493 22.8036 56.5879 21.2617 57.4652C19.7463 58.316 18.4968 59.4459 17.5131 60.8549C15.5458 63.6198 14.5621 67.1158 14.5621 71.343Z" fill="#159A9C"/>
<path d="M1.91455 84.8033V65.3924H14.3496V68.3401H5.43086V73.6098H13.4966V76.5575H5.43086V84.8033H1.91455Z" fill="white"/>
<path d="M43.7327 85.0792C42.5763 85.0792 41.5832 84.8253 40.7536 84.3175C39.9291 83.8097 39.293 83.1083 38.8456 82.2133C38.4031 81.3133 38.1819 80.2776 38.1819 79.1061C38.1819 77.9296 38.4081 76.8913 38.8606 75.9913C39.3132 75.0863 39.9517 74.3824 40.7763 73.8796C41.6059 73.3718 42.5863 73.1179 43.7176 73.1179C44.6578 73.1179 45.4899 73.2913 46.2139 73.6383C46.943 73.9802 47.5237 74.4653 47.9561 75.0938C48.3885 75.7173 48.6349 76.4463 48.6952 77.281H46.0857C45.9801 76.7229 45.7287 76.2578 45.3315 75.8857C44.9394 75.5086 44.4139 75.3201 43.7553 75.3201C43.1972 75.3201 42.707 75.4709 42.2846 75.7726C41.8623 76.0692 41.533 76.4966 41.2967 77.0547C41.0654 77.6128 40.9497 78.2815 40.9497 79.0608C40.9497 79.8502 41.0654 80.529 41.2967 81.0971C41.5279 81.6603 41.8522 82.0952 42.2696 82.4019C42.6919 82.7035 43.1871 82.8544 43.7553 82.8544C44.1575 82.8544 44.517 82.779 44.8338 82.6281C45.1556 82.4723 45.4246 82.2485 45.6408 81.9569C45.8569 81.6653 46.0053 81.3108 46.0857 80.8935H48.6952C48.6298 81.713 48.3885 82.4396 47.9712 83.0731C47.5539 83.7016 46.9857 84.1943 46.2667 84.5513C45.5477 84.9032 44.703 85.0792 43.7327 85.0792ZM57.8957 79.9809V73.2687H60.6258V84.853H57.9787V82.794H57.858C57.5965 83.4426 57.1667 83.9731 56.5683 84.3854C55.9751 84.7977 55.2435 85.0038 54.3737 85.0038C53.6145 85.0038 52.9432 84.8354 52.36 84.4985C51.7818 84.1566 51.3293 83.6614 51.0025 83.0128C50.6757 82.3591 50.5122 81.5698 50.5122 80.6446V73.2687H53.2424V80.2223C53.2424 80.9564 53.4435 81.5396 53.8457 81.972C54.248 82.4044 54.7759 82.6206 55.4295 82.6206C55.8318 82.6206 56.2214 82.5225 56.5985 82.3265C56.9756 82.1304 57.2848 81.8387 57.5262 81.4516C57.7725 81.0594 57.8957 80.5692 57.8957 79.9809ZM72.1643 76.3307L69.6755 76.6022C69.6051 76.3508 69.4819 76.1145 69.306 75.8933C69.135 75.672 68.9037 75.4935 68.6121 75.3578C68.3205 75.222 67.9635 75.1542 67.5412 75.1542C66.973 75.1542 66.4954 75.2773 66.1082 75.5237C65.7261 75.7701 65.5376 76.0894 65.5426 76.4815C65.5376 76.8184 65.6608 77.0924 65.9121 77.3036C66.1686 77.5148 66.5909 77.6882 67.1792 77.824L69.1551 78.2463C70.2512 78.4826 71.0657 78.8572 71.5987 79.3701C72.1367 79.8829 72.4082 80.5541 72.4132 81.3837C72.4082 82.1128 72.1945 82.7563 71.7722 83.3144C71.3548 83.8675 70.7741 84.2999 70.03 84.6116C69.2859 84.9234 68.4311 85.0792 67.4658 85.0792C66.0479 85.0792 64.9066 84.7826 64.0418 84.1893C63.177 83.591 62.6616 82.7589 62.4957 81.6929L65.158 81.4365C65.2786 81.9594 65.5351 82.3541 65.9272 82.6206C66.3194 82.8871 66.8297 83.0203 67.4582 83.0203C68.1068 83.0203 68.6272 82.8871 69.0194 82.6206C69.4166 82.3541 69.6152 82.0248 69.6152 81.6326C69.6152 81.3008 69.487 81.0267 69.2306 80.8105C68.9792 80.5943 68.587 80.4284 68.054 80.3128L66.0781 79.898C64.9669 79.6667 64.1448 79.277 63.6119 78.729C63.0789 78.1759 62.815 77.4771 62.82 76.6324C62.815 75.9184 63.0085 75.3 63.4007 74.7771C63.7979 74.2491 64.3485 73.8419 65.0524 73.5553C65.7613 73.2637 66.5783 73.1179 67.5035 73.1179C68.861 73.1179 69.9294 73.407 70.7088 73.9852C71.4931 74.5634 71.9783 75.3452 72.1643 76.3307ZM75.9215 85.0189C75.464 85.0189 75.0718 84.858 74.745 84.5362C74.4182 84.2144 74.2573 83.8222 74.2623 83.3597C74.2573 82.9072 74.4182 82.52 74.745 82.1982C75.0718 81.8765 75.464 81.7156 75.9215 81.7156C76.364 81.7156 76.7486 81.8765 77.0754 82.1982C77.4073 82.52 77.5757 82.9072 77.5807 83.3597C77.5757 83.6664 77.4952 83.9454 77.3394 84.1968C77.1885 84.4482 76.9874 84.6493 76.736 84.8002C76.4897 84.946 76.2182 85.0189 75.9215 85.0189ZM84.8154 85.0792C83.6841 85.0792 82.7037 84.8303 81.8741 84.3326C81.0445 83.8348 80.4009 83.1385 79.9434 82.2435C79.4908 81.3485 79.2646 80.3027 79.2646 79.1061C79.2646 77.9095 79.4908 76.8611 79.9434 75.9611C80.4009 75.0612 81.0445 74.3623 81.8741 73.8645C82.7037 73.3668 83.6841 73.1179 84.8154 73.1179C85.9467 73.1179 86.9271 73.3668 87.7567 73.8645C88.5863 74.3623 89.2273 75.0612 89.6799 75.9611C90.1374 76.8611 90.3662 77.9095 90.3662 79.1061C90.3662 80.3027 90.1374 81.3485 89.6799 82.2435C89.2273 83.1385 88.5863 83.8348 87.7567 84.3326C86.9271 84.8303 85.9467 85.0792 84.8154 85.0792ZM84.8305 82.8921C85.4439 82.8921 85.9567 82.7237 86.369 82.3868C86.7813 82.0449 87.088 81.5874 87.2891 81.0142C87.4952 80.441 87.5983 79.8025 87.5983 79.0985C87.5983 78.3896 87.4952 77.7486 87.2891 77.1754C87.088 76.5972 86.7813 76.1371 86.369 75.7952C85.9567 75.4533 85.4439 75.2824 84.8305 75.2824C84.202 75.2824 83.6791 75.4533 83.2618 75.7952C82.8495 76.1371 82.5403 76.5972 82.3341 77.1754C82.133 77.7486 82.0324 78.3896 82.0324 79.0985C82.0324 79.8025 82.133 80.441 82.3341 81.0142C82.5403 81.5874 82.8495 82.0449 83.2618 82.3868C83.6791 82.7237 84.202 82.8921 84.8305 82.8921ZM94.9888 78.0653V84.853H92.2586V73.2687H94.8681V75.2371H95.0039C95.2703 74.5885 95.6952 74.0732 96.2784 73.6911C96.8667 73.3089 97.5932 73.1179 98.458 73.1179C99.2575 73.1179 99.9538 73.2888 100.547 73.6307C101.145 73.9726 101.608 74.4679 101.935 75.1165C102.267 75.7651 102.43 76.5519 102.425 77.4771V84.853H99.6949V77.8994C99.6949 77.1251 99.4938 76.5192 99.0915 76.0818C98.6943 75.6444 98.1438 75.4257 97.4399 75.4257C96.9622 75.4257 96.5374 75.5313 96.1653 75.7424C95.7983 75.9486 95.5092 76.2477 95.298 76.6399C95.0919 77.0321 94.9888 77.5072 94.9888 78.0653Z" fill="white"/>
</svg>
