<svg width="106" height="43" viewBox="0 0 106 43" fill="none" xmlns="http://www.w3.org/2000/svg">
<path d="M6.26733 21.343C6.26733 14.8826 8.32772 9.64529 12.4485 5.63079C16.3034 1.88229 21.0756 0.00799561 26.7649 0.00799561C32.3479 0.00799561 37.0137 1.88229 40.7622 5.63079C44.7501 9.61869 46.744 14.8561 46.744 21.343C46.744 27.8033 44.7368 33.0141 40.7224 36.9753C36.9206 40.7505 32.2548 42.6381 26.725 42.6381C21.1154 42.6381 16.3566 40.7505 12.4485 36.9753C8.32772 33.0141 6.26733 27.8033 6.26733 21.343ZM14.5621 21.343C14.5621 28.1489 16.7421 32.7748 21.1022 35.2207C22.6441 36.0714 24.4918 36.4968 26.6453 36.4968C28.7987 36.4968 30.6198 36.0714 32.1086 35.2207C33.5974 34.3433 34.8203 33.2002 35.7774 31.7911C37.5587 29.0794 38.4493 25.5967 38.4493 21.343C38.4493 14.5902 36.3091 9.96429 32.0289 7.46519C30.5401 6.58789 28.7588 6.1493 26.6851 6.1493C24.6115 6.1493 22.8036 6.58789 21.2617 7.46519C19.7463 8.31599 18.4968 9.4459 17.5131 10.8549C15.5458 13.6198 14.5621 17.1158 14.5621 21.343Z" fill="#159A9C"/>
<path d="M1.91455 34.8033V15.3924H14.3496V18.3401H5.43086V23.6098H13.4966V26.5575H5.43086V34.8033H1.91455Z" fill="white"/>
<path d="M43.7327 35.0792C42.5763 35.0792 41.5832 34.8253 40.7536 34.3175C39.9291 33.8097 39.293 33.1083 38.8456 32.2133C38.4031 31.3133 38.1819 30.2776 38.1819 29.1061C38.1819 27.9296 38.4081 26.8913 38.8606 25.9913C39.3132 25.0863 39.9517 24.3824 40.7763 23.8796C41.6059 23.3718 42.5863 23.1179 43.7176 23.1179C44.6578 23.1179 45.4899 23.2913 46.2139 23.6383C46.943 23.9802 47.5237 24.4653 47.9561 25.0938C48.3885 25.7173 48.6349 26.4463 48.6952 27.281H46.0857C45.9801 26.7229 45.7287 26.2578 45.3315 25.8857C44.9394 25.5086 44.4139 25.3201 43.7553 25.3201C43.1972 25.3201 42.707 25.4709 42.2846 25.7726C41.8623 26.0692 41.533 26.4966 41.2967 27.0547C41.0654 27.6128 40.9497 28.2815 40.9497 29.0608C40.9497 29.8502 41.0654 30.529 41.2967 31.0971C41.5279 31.6603 41.8522 32.0952 42.2696 32.4019C42.6919 32.7035 43.1871 32.8544 43.7553 32.8544C44.1575 32.8544 44.517 32.779 44.8338 32.6281C45.1556 32.4723 45.4246 32.2485 45.6408 31.9569C45.8569 31.6653 46.0053 31.3108 46.0857 30.8935H48.6952C48.6298 31.713 48.3885 32.4396 47.9712 33.0731C47.5539 33.7016 46.9857 34.1943 46.2667 34.5513C45.5477 34.9032 44.703 35.0792 43.7327 35.0792ZM57.8957 29.9809V23.2687H60.6258V34.853H57.9787V32.794H57.858C57.5965 33.4426 57.1667 33.9731 56.5683 34.3854C55.9751 34.7977 55.2435 35.0038 54.3737 35.0038C53.6145 35.0038 52.9432 34.8354 52.36 34.4985C51.7818 34.1566 51.3293 33.6614 51.0025 33.0128C50.6757 32.3591 50.5122 31.5698 50.5122 30.6446V23.2687H53.2424V30.2223C53.2424 30.9564 53.4435 31.5396 53.8457 31.972C54.248 32.4044 54.7759 32.6206 55.4295 32.6206C55.8318 32.6206 56.2214 32.5225 56.5985 32.3265C56.9756 32.1304 57.2848 31.8387 57.5262 31.4516C57.7725 31.0594 57.8957 30.5692 57.8957 29.9809ZM72.1643 26.3307L69.6755 26.6022C69.6051 26.3508 69.4819 26.1145 69.306 25.8933C69.135 25.672 68.9037 25.4935 68.6121 25.3578C68.3205 25.222 67.9635 25.1542 67.5412 25.1542C66.973 25.1542 66.4954 25.2773 66.1082 25.5237C65.7261 25.7701 65.5376 26.0894 65.5426 26.4815C65.5376 26.8184 65.6608 27.0924 65.9121 27.3036C66.1686 27.5148 66.5909 27.6882 67.1792 27.824L69.1551 28.2463C70.2512 28.4826 71.0657 28.8572 71.5987 29.3701C72.1367 29.8829 72.4082 30.5541 72.4132 31.3837C72.4082 32.1128 72.1945 32.7563 71.7722 33.3144C71.3548 33.8675 70.7741 34.2999 70.03 34.6116C69.2859 34.9234 68.4311 35.0792 67.4658 35.0792C66.0479 35.0792 64.9066 34.7826 64.0418 34.1893C63.177 33.591 62.6616 32.7589 62.4957 31.6929L65.158 31.4365C65.2786 31.9594 65.5351 32.3541 65.9272 32.6206C66.3194 32.8871 66.8297 33.0203 67.4582 33.0203C68.1068 33.0203 68.6272 32.8871 69.0194 32.6206C69.4166 32.3541 69.6152 32.0248 69.6152 31.6326C69.6152 31.3008 69.487 31.0267 69.2306 30.8105C68.9792 30.5943 68.587 30.4284 68.054 30.3128L66.0781 29.898C64.9669 29.6667 64.1448 29.277 63.6119 28.729C63.0789 28.1759 62.815 27.4771 62.82 26.6324C62.815 25.9184 63.0085 25.3 63.4007 24.7771C63.7979 24.2491 64.3485 23.8419 65.0524 23.5553C65.7613 23.2637 66.5783 23.1179 67.5035 23.1179C68.861 23.1179 69.9294 23.407 70.7088 23.9852C71.4931 24.5634 71.9783 25.3452 72.1643 26.3307ZM75.9215 35.0189C75.464 35.0189 75.0718 34.858 74.745 34.5362C74.4182 34.2144 74.2573 33.8222 74.2623 33.3597C74.2573 32.9072 74.4182 32.52 74.745 32.1982C75.0718 31.8765 75.464 31.7156 75.9215 31.7156C76.364 31.7156 76.7486 31.8765 77.0754 32.1982C77.4073 32.52 77.5757 32.9072 77.5807 33.3597C77.5757 33.6664 77.4952 33.9454 77.3394 34.1968C77.1885 34.4482 76.9874 34.6493 76.736 34.8002C76.4897 34.946 76.2182 35.0189 75.9215 35.0189ZM84.8154 35.0792C83.6841 35.0792 82.7037 34.8303 81.8741 34.3326C81.0445 33.8348 80.4009 33.1385 79.9434 32.2435C79.4908 31.3485 79.2646 30.3027 79.2646 29.1061C79.2646 27.9095 79.4908 26.8611 79.9434 25.9611C80.4009 25.0612 81.0445 24.3623 81.8741 23.8645C82.7037 23.3668 83.6841 23.1179 84.8154 23.1179C85.9467 23.1179 86.9271 23.3668 87.7567 23.8645C88.5863 24.3623 89.2273 25.0612 89.6799 25.9611C90.1374 26.8611 90.3662 27.9095 90.3662 29.1061C90.3662 30.3027 90.1374 31.3485 89.6799 32.2435C89.2273 33.1385 88.5863 33.8348 87.7567 34.3326C86.9271 34.8303 85.9467 35.0792 84.8154 35.0792ZM84.8305 32.8921C85.4439 32.8921 85.9567 32.7237 86.369 32.3868C86.7813 32.0449 87.088 31.5874 87.2891 31.0142C87.4952 30.441 87.5983 29.8025 87.5983 29.0985C87.5983 28.3896 87.4952 27.7486 87.2891 27.1754C87.088 26.5972 86.7813 26.1371 86.369 25.7952C85.9567 25.4533 85.4439 25.2824 84.8305 25.2824C84.202 25.2824 83.6791 25.4533 83.2618 25.7952C82.8495 26.1371 82.5403 26.5972 82.3341 27.1754C82.133 27.7486 82.0324 28.3896 82.0324 29.0985C82.0324 29.8025 82.133 30.441 82.3341 31.0142C82.5403 31.5874 82.8495 32.0449 83.2618 32.3868C83.6791 32.7237 84.202 32.8921 84.8305 32.8921ZM94.9888 28.0653V34.853H92.2586V23.2687H94.8681V25.2371H95.0039C95.2703 24.5885 95.6952 24.0732 96.2784 23.6911C96.8667 23.3089 97.5932 23.1179 98.458 23.1179C99.2575 23.1179 99.9538 23.2888 100.547 23.6307C101.145 23.9726 101.608 24.4679 101.935 25.1165C102.267 25.7651 102.43 26.5519 102.425 27.4771V34.853H99.6949V27.8994C99.6949 27.1251 99.4938 26.5192 99.0915 26.0818C98.6943 25.6444 98.1438 25.4257 97.4399 25.4257C96.9622 25.4257 96.5374 25.5313 96.1653 25.7424C95.7983 25.9486 95.5092 26.2477 95.298 26.6399C95.0919 27.0321 94.9888 27.5072 94.9888 28.0653Z" fill="white"/>
</svg>
