<svg width="124" height="124" viewBox="0 0 124 124" fill="none" xmlns="http://www.w3.org/2000/svg">
<path fill-rule="evenodd" clip-rule="evenodd" d="M62 124C96.2417 124 124 96.2417 124 62C124 27.7583 96.2417 0 62 0C27.7583 0 0 27.7583 0 62C0 96.2417 27.7583 124 62 124Z" fill="black"/>
<path fill-rule="evenodd" clip-rule="evenodd" d="M74.6194 48.8154L41.5289 31C39.8044 31 38.407 32.3738 38.407 34.0693V89.9307C38.407 91.6262 39.8044 93 41.5289 93C41.5289 93 59.6743 83.1711 74.6194 75.1109V48.8154Z" fill="white"/>
<path fill-rule="evenodd" clip-rule="evenodd" d="M80.433 52L92.9881 58.7108C98.5703 61.653 92.9881 64.1581 92.9881 64.1581C92.9881 63.9881 40.8995 92 40.8995 92C40.7991 92 40.6998 91.9953 40.6018 91.9862L80.433 52Z" fill="#CCCCCC"/>
<path fill-rule="evenodd" clip-rule="evenodd" d="M41.6992 31L93.0244 58.9521C98.525 61.906 93.0244 64.4212 93.0244 64.4212C93.0244 64.367 87.859 67.1603 80.8054 71L41.6992 31Z" fill="#CCCCCC"/>
<path fill-rule="evenodd" clip-rule="evenodd" d="M80.5526 52L92.9967 58.791C98.5594 61.7844 92.9967 64.3332 92.9967 64.3332C92.9967 64.2783 87.7729 67.109 80.6396 71L71.3274 61.4554L80.5526 52Z" fill="white"/>
</svg>
